<?xml version="1.0" encoding="UTF-8" standalone="no" ?>
<!DOCTYPE svg PUBLIC "-//W3C//DTD SVG 1.1//EN" "http://www.w3.org/Graphics/SVG/1.1/DTD/svg11.dtd">
<svg xmlns="http://www.w3.org/2000/svg" xmlns:xlink="http://www.w3.org/1999/xlink" version="1.1" width="1080" height="1080" viewBox="0 0 1080 1080" xml:space="preserve">
<desc>Created with Fabric.js 5.2.4</desc>
<defs>
</defs>
<g transform="matrix(1 0 0 1 540 540)" id="19fbf0a6-5cdc-43db-8a94-38040f9af7bf"  >
</g>
<g transform="matrix(1 0 0 1 540 540)" id="58337ec3-bf74-46ff-af50-ae2053f9fd93"  >
<rect style="stroke: none; stroke-width: 1; stroke-dasharray: none; stroke-linecap: butt; stroke-dashoffset: 0; stroke-linejoin: miter; stroke-miterlimit: 4; fill: rgb(255,255,255); fill-rule: nonzero; opacity: 1; visibility: hidden;" vector-effect="non-scaling-stroke"  x="-540" y="-540" rx="0" ry="0" width="1080" height="1080" />
</g>
<g transform="matrix(1 0 0 1 540 540)"  >
<g style="" vector-effect="non-scaling-stroke"   >
		<g transform="matrix(1.78 0 0 1.78 -0.82 -0.82)"  >
<path style="stroke: none; stroke-width: 1; stroke-dasharray: none; stroke-linecap: butt; stroke-dashoffset: 0; stroke-linejoin: miter; stroke-miterlimit: 4; fill: rgb(0,0,0); fill-rule: nonzero; opacity: 1;" vector-effect="non-scaling-stroke"  transform=" translate(-224.26, -224.26)" d="M 388.953 100.169 L 273.19599999999997 100.169 C 271.905 91.96 268.493 84.28699999999999 263.22299999999996 77.8 L 304.2579999999999 36.766 C 307.1839999999999 38.483 310.5779999999999 39.486 314.2099999999999 39.486 C 325.09599999999995 39.486 333.9529999999999 30.628999999999998 333.9529999999999 19.743 C 333.95299999999986 8.857 325.0959999999999 0 314.20899999999995 0 C 303.322 0 294.46599999999995 8.857 294.46599999999995 19.743 C 294.46599999999995 23.374 295.46899999999994 26.769 297.186 29.695 L 256.15 70.731 C 238.79699999999997 56.67699999999999 213.76899999999998 56.678 196.421 70.731 L 155.385 29.694999999999993 C 157.102 26.76899999999999 158.105 23.374999999999993 158.105 19.742999999999995 C 158.105 8.856999999999996 149.249 -3.552713678800501e-15 138.362 -3.552713678800501e-15 C 127.475 -3.552713678800501e-15 118.619 8.856999999999996 118.619 19.742999999999995 C 118.619 30.628999999999994 127.476 39.48599999999999 138.362 39.48599999999999 C 141.993 39.48599999999999 145.387 38.48299999999999 148.314 36.76599999999999 L 189.349 77.80099999999999 C 184.078 84.28899999999999 180.666 91.96199999999999 179.375 100.16999999999999 L 59.565 100.16999999999999 C 27.253 100.16999999999999 0.9649999999999963 126.45799999999998 0.9649999999999963 158.76999999999998 L 0.9649999999999963 376.772 C 0.9649999999999963 409.084 27.252999999999997 435.372 59.565 435.372 L 78.482 435.372 L 78.482 441.01800000000003 C 78.482 445.16 81.84 448.51800000000003 85.982 448.51800000000003 C 90.124 448.51800000000003 93.482 445.16 93.482 441.01800000000003 L 93.482 435.372 L 355.03700000000003 435.372 L 355.03700000000003 441.01800000000003 C 355.03700000000003 445.16 358.39500000000004 448.51800000000003 362.53700000000003 448.51800000000003 C 366.67900000000003 448.51800000000003 370.03700000000003 445.16 370.03700000000003 441.01800000000003 L 370.03700000000003 435.372 L 388.95400000000006 435.372 C 421.2660000000001 435.372 447.5540000000001 409.084 447.5540000000001 376.772 L 447.5540000000001 158.769 C 447.5530000000001 126.45700000000001 421.2650000000001 100.16900000000001 388.9530000000001 100.16900000000001 z M 314.20899999999995 10 C 319.58199999999994 10 323.95199999999994 14.371 323.95199999999994 19.743000000000002 C 323.95199999999994 25.115000000000002 319.58099999999996 29.486000000000004 314.20899999999995 29.486000000000004 C 308.83699999999993 29.486000000000004 304.46599999999995 25.115000000000002 304.46599999999995 19.743000000000002 C 304.46599999999995 14.371000000000002 308.83699999999993 10.000000000000002 314.20899999999995 10.000000000000002 z M 138.36199999999994 29.486 C 132.98899999999995 29.486 128.61899999999994 25.115000000000002 128.61899999999994 19.743000000000002 C 128.61899999999994 14.371000000000002 132.98999999999995 10.000000000000002 138.36199999999994 10.000000000000002 C 143.73399999999992 10.000000000000002 148.10499999999993 14.371000000000002 148.10499999999993 19.743000000000002 C 148.10499999999993 25.115000000000002 143.73399999999992 29.486000000000004 138.36199999999994 29.486000000000004 z M 203.30899999999994 84.683 C 215.97899999999993 72.01400000000001 236.59299999999993 72.01400000000001 249.26599999999993 84.686 C 253.60299999999992 89.01700000000001 256.55499999999995 94.35600000000001 257.9189999999999 100.16900000000001 L 194.65199999999993 100.16900000000001 C 196.01699999999994 94.35500000000002 198.96999999999994 89.016 203.30899999999994 84.683 z M 432.55299999999994 376.772 C 432.55299999999994 400.813 412.9939999999999 420.372 388.9529999999999 420.372 L 59.56499999999994 420.372 C 35.523999999999944 420.372 15.96499999999994 400.813 15.96499999999994 376.772 L 15.96499999999994 158.769 C 15.96499999999994 134.728 35.523999999999944 115.16900000000001 59.56499999999994 115.16900000000001 L 388.9529999999999 115.16900000000001 C 412.9939999999999 115.16900000000001 432.55299999999994 134.728 432.55299999999994 158.769 L 432.55299999999994 376.772 z" stroke-linecap="round" />
</g>
		<g transform="matrix(1.78 0 0 1.78 -0.73 77.09)"  >
<path style="stroke: none; stroke-width: 1; stroke-dasharray: none; stroke-linecap: butt; stroke-dashoffset: 0; stroke-linejoin: miter; stroke-miterlimit: 4; fill: rgb(0,0,0); fill-rule: nonzero; opacity: 1;" vector-effect="non-scaling-stroke"  transform=" translate(-224.26, -267.77)" d="M 388.595 124.49 L 59.923 124.49 C 40.824 124.49 25.285000000000004 140.028 25.285000000000004 159.128 L 25.285000000000004 376.41499999999996 C 25.285000000000004 395.51399999999995 40.824000000000005 411.05299999999994 59.923 411.05299999999994 L 388.595 411.05299999999994 C 407.694 411.05299999999994 423.233 395.51499999999993 423.233 376.41499999999996 L 423.233 159.12699999999995 C 423.233 140.02799999999996 407.694 124.48999999999995 388.595 124.48999999999995 z M 413.233 376.414 C 413.233 389.99899999999997 402.181 401.05199999999996 388.595 401.05199999999996 L 59.923 401.05199999999996 C 46.338 401.05199999999996 35.285 389.99999999999994 35.285 376.414 L 35.285 159.12699999999998 C 35.285 145.54199999999997 46.336999999999996 134.48899999999998 59.923 134.48899999999998 L 388.595 134.48899999999998 C 402.18 134.48899999999998 413.233 145.54099999999997 413.233 159.12699999999998 L 413.233 376.414 z" stroke-linecap="round" />
</g>
		<g transform="matrix(1.78 0 0 1.78 -68.44 77.16)"  >
<path style="stroke: none; stroke-width: 1; stroke-dasharray: none; stroke-linecap: butt; stroke-dashoffset: 0; stroke-linejoin: miter; stroke-miterlimit: 4; fill: rgb(0,0,0); fill-rule: nonzero; opacity: 1;" vector-effect="non-scaling-stroke"  transform=" translate(-186.18, -267.77)" d="M 299.113 152.132 C 224.176 141.04 148.183 141.04 73.24699999999999 152.132 C 63.33699999999999 153.59900000000002 55.39799999999998 161.237 53.490999999999985 171.139 C 41.140999999999984 235.25900000000001 41.140999999999984 300.283 53.490999999999985 364.403 C 55.39799999999998 374.305 63.33699999999999 381.94300000000004 73.24699999999999 383.41 C 110.71499999999999 388.956 148.447 391.72900000000004 186.18 391.72900000000004 C 223.913 391.72900000000004 261.645 388.956 299.11400000000003 383.41 C 309.02400000000006 381.944 316.963 374.305 318.87 364.403 C 331.22 300.283 331.22 235.25900000000001 318.87 171.139 C 316.962 161.23700000000002 309.023 153.598 299.113 152.132 z M 309.05 362.51099999999997 C 307.945 368.248 303.363 372.671 297.65000000000003 373.51699999999994 C 223.68300000000005 384.4649999999999 148.67600000000004 384.4649999999999 74.71200000000005 373.51699999999994 C 68.99800000000005 372.67099999999994 64.41700000000004 368.24799999999993 63.31200000000005 362.51099999999997 C 51.20400000000005 299.64599999999996 51.20400000000005 235.89499999999998 63.31200000000005 173.02999999999997 C 64.41700000000004 167.29299999999998 68.99900000000005 162.86999999999998 74.71200000000005 162.02399999999997 C 111.69500000000005 156.54999999999998 148.93800000000005 153.81299999999996 186.18100000000004 153.81299999999996 C 223.42400000000004 153.81299999999996 260.66700000000003 156.54999999999995 297.65000000000003 162.02399999999997 C 303.36400000000003 162.86999999999998 307.94500000000005 167.29299999999998 309.05 173.02999999999997 C 321.158 235.89499999999998 321.158 299.64599999999996 309.05 362.51099999999997 z" stroke-linecap="round" />
</g>
		<g transform="matrix(1.78 0 0 1.78 138.01 60.38)"  >
<path style="stroke: none; stroke-width: 1; stroke-dasharray: none; stroke-linecap: butt; stroke-dashoffset: 0; stroke-linejoin: miter; stroke-miterlimit: 4; fill: rgb(0,0,0); fill-rule: nonzero; opacity: 1;" vector-effect="non-scaling-stroke"  transform=" translate(-301.65, -258.21)" d="M 299.625 209.503 C 296.88 209.808 294.902 212.27999999999997 295.208 215.02399999999997 C 298.394 243.71999999999997 298.973 272.846 296.93 301.59299999999996 C 296.734 304.34799999999996 298.808 306.739 301.563 306.93499999999995 C 301.68399999999997 306.94399999999996 301.804 306.9479999999999 301.923 306.9479999999999 C 304.523 306.9479999999999 306.718 304.9359999999999 306.90500000000003 302.3019999999999 C 308.99100000000004 272.9519999999999 308.39900000000006 243.2159999999999 305.14700000000005 213.9199999999999 C 304.84100000000007 211.1759999999999 302.37200000000007 209.2019999999999 299.62500000000006 209.5029999999999 z" stroke-linecap="round" />
</g>
		<g transform="matrix(1.78 0 0 1.78 128.43 -65.82)"  >
<path style="stroke: none; stroke-width: 1; stroke-dasharray: none; stroke-linecap: butt; stroke-dashoffset: 0; stroke-linejoin: miter; stroke-miterlimit: 4; fill: rgb(0,0,0); fill-rule: nonzero; opacity: 1;" vector-effect="non-scaling-stroke"  transform=" translate(-296.28, -187.39)" d="M 298.79 202.998 C 301.52200000000005 202.6 303.415 200.06199999999998 303.01800000000003 197.32999999999998 C 301.97600000000006 190.16699999999997 300.757 182.91699999999997 299.396 175.783 C 298.87800000000004 173.071 296.261 171.291 293.547 171.809 C 290.83500000000004 172.327 289.055 174.945 289.572 177.657 C 290.906 184.64800000000002 292.1 191.751 293.122 198.77 C 293.48400000000004 201.25900000000001 295.62100000000004 203.05100000000002 298.063 203.05100000000002 C 298.303 203.051 298.546 203.03300000000002 298.78999999999996 202.99800000000002 z" stroke-linecap="round" />
</g>
		<g transform="matrix(1.78 0 0 1.78 257.7 220.45)"  >
<path style="stroke: none; stroke-width: 1; stroke-dasharray: none; stroke-linecap: butt; stroke-dashoffset: 0; stroke-linejoin: miter; stroke-miterlimit: 4; fill: rgb(0,0,0); fill-rule: nonzero; opacity: 1;" vector-effect="non-scaling-stroke"  transform=" translate(-368.8, -347.87)" d="M 396.413 342.865 L 341.19 342.865 C 338.429 342.865 336.19 345.104 336.19 347.865 C 336.19 350.62600000000003 338.429 352.865 341.19 352.865 L 396.413 352.865 C 399.17400000000004 352.865 401.413 350.62600000000003 401.413 347.865 C 401.413 345.104 399.17400000000004 342.865 396.413 342.865 z" stroke-linecap="round" />
</g>
		<g transform="matrix(1.78 0 0 1.78 257.7 252.88)"  >
<path style="stroke: none; stroke-width: 1; stroke-dasharray: none; stroke-linecap: butt; stroke-dashoffset: 0; stroke-linejoin: miter; stroke-miterlimit: 4; fill: rgb(0,0,0); fill-rule: nonzero; opacity: 1;" vector-effect="non-scaling-stroke"  transform=" translate(-368.8, -366.05)" d="M 396.413 361.048 L 341.19 361.048 C 338.429 361.048 336.19 363.287 336.19 366.048 C 336.19 368.809 338.429 371.048 341.19 371.048 L 396.413 371.048 C 399.17400000000004 371.048 401.413 368.809 401.413 366.048 C 401.413 363.287 399.17400000000004 361.048 396.413 361.048 z" stroke-linecap="round" />
</g>
		<g transform="matrix(1.78 0 0 1.78 257.7 285.32)"  >
<path style="stroke: none; stroke-width: 1; stroke-dasharray: none; stroke-linecap: butt; stroke-dashoffset: 0; stroke-linejoin: miter; stroke-miterlimit: 4; fill: rgb(0,0,0); fill-rule: nonzero; opacity: 1;" vector-effect="non-scaling-stroke"  transform=" translate(-368.8, -384.23)" d="M 396.413 379.231 L 341.19 379.231 C 338.429 379.231 336.19 381.46999999999997 336.19 384.231 C 336.19 386.992 338.429 389.231 341.19 389.231 L 396.413 389.231 C 399.17400000000004 389.231 401.413 386.992 401.413 384.231 C 401.413 381.46999999999997 399.17400000000004 379.231 396.413 379.231 z" stroke-linecap="round" />
</g>
		<g transform="matrix(1.78 0 0 1.78 257.73 138.7)"  >
<path style="stroke: none; stroke-width: 1; stroke-dasharray: none; stroke-linecap: butt; stroke-dashoffset: 0; stroke-linejoin: miter; stroke-miterlimit: 4; fill: rgb(0,0,0); fill-rule: nonzero; opacity: 1;" vector-effect="non-scaling-stroke"  transform=" translate(-368.81, -302.08)" d="M 350.573 283.849 C 340.522 293.9 340.522 310.254 350.573 320.306 C 355.599 325.33099999999996 362.2 327.844 368.80199999999996 327.844 C 375.40399999999994 327.844 382.00499999999994 325.331 387.03099999999995 320.306 C 391.9 315.437 394.58099999999996 308.96299999999997 394.58099999999996 302.078 C 394.58099999999996 295.19199999999995 391.9 288.71799999999996 387.03099999999995 283.849 C 376.97799999999995 273.798 360.62499999999994 273.79699999999997 350.573 283.849 z M 357.644 290.92 C 360.72 287.844 364.761 286.30600000000004 368.801 286.30600000000004 C 371.217 286.30600000000004 373.62899999999996 286.86800000000005 375.839 287.968 L 354.692 309.115 C 351.753 303.209 352.729 295.83500000000004 357.644 290.92 z M 379.958 313.23400000000004 C 375.043 318.14900000000006 367.66900000000004 319.12500000000006 361.76300000000003 316.18600000000004 L 382.913 295.03600000000006 C 383.994 297.19700000000006 384.579 299.59000000000003 384.579 302.07700000000006 C 384.58 306.29200000000003 382.939 310.2540000000001 379.958 313.23400000000004 z" stroke-linecap="round" />
</g>
		<g transform="matrix(1.78 0 0 1.78 257.73 26.46)"  >
<path style="stroke: none; stroke-width: 1; stroke-dasharray: none; stroke-linecap: butt; stroke-dashoffset: 0; stroke-linejoin: miter; stroke-miterlimit: 4; fill: rgb(0,0,0); fill-rule: nonzero; opacity: 1;" vector-effect="non-scaling-stroke"  transform=" translate(-368.81, -239.15)" d="M 350.573 257.376 C 355.599 262.402 362.19899999999996 264.914 368.80199999999996 264.914 C 375.40299999999996 264.914 382.006 262.401 387.03099999999995 257.376 C 391.9 252.50699999999998 394.58099999999996 246.033 394.58099999999996 239.14799999999997 C 394.58099999999996 232.26299999999995 391.9 225.78899999999996 387.03099999999995 220.91899999999998 C 376.9789999999999 210.868 360.626 210.868 350.57399999999996 220.91899999999998 C 340.52199999999993 230.97099999999998 340.52199999999993 247.325 350.573 257.376 z M 357.644 250.30499999999998 C 352.729 245.39 351.753 238.016 354.692 232.10999999999999 L 375.839 253.25699999999998 C 369.934 256.197 362.56 255.22099999999998 357.644 250.30499999999998 z M 379.958 227.99099999999999 C 382.93800000000005 230.97099999999998 384.58000000000004 234.934 384.58000000000004 239.148 C 384.58000000000004 241.635 383.99500000000006 244.028 382.91400000000004 246.189 L 361.76300000000003 225.039 C 363.973 223.939 366.38500000000005 223.37699999999998 368.80100000000004 223.37699999999998 C 372.84200000000004 223.37699999999998 376.88200000000006 224.915 379.958 227.99099999999999 z" stroke-linecap="round" />
</g>
		<g transform="matrix(1.78 0 0 1.78 215.92 -83.39)"  >
<path style="stroke: none; stroke-width: 1; stroke-dasharray: none; stroke-linecap: butt; stroke-dashoffset: 0; stroke-linejoin: miter; stroke-miterlimit: 4; fill: rgb(0,0,0); fill-rule: nonzero; opacity: 1;" vector-effect="non-scaling-stroke"  transform=" translate(-345.32, -177.52)" d="M 345.322 182.518 C 346.632 182.518 347.922 181.988 348.852 181.058 C 349.782 180.128 350.322 178.838 350.322 177.518 C 350.322 176.198 349.782 174.918 348.852 173.978 C 347.92199999999997 173.048 346.63199999999995 172.518 345.322 172.518 C 344.002 172.518 342.712 173.048 341.782 173.978 C 340.852 174.90800000000002 340.322 176.198 340.322 177.518 C 340.322 178.838 340.852 180.12800000000001 341.782 181.048 C 342.712 181.988 344.002 182.518 345.322 182.518 z" stroke-linecap="round" />
</g>
		<g transform="matrix(1.78 0 0 1.78 243.83 -83.39)"  >
<path style="stroke: none; stroke-width: 1; stroke-dasharray: none; stroke-linecap: butt; stroke-dashoffset: 0; stroke-linejoin: miter; stroke-miterlimit: 4; fill: rgb(0,0,0); fill-rule: nonzero; opacity: 1;" vector-effect="non-scaling-stroke"  transform=" translate(-360.97, -177.52)" d="M 360.972 182.518 C 362.292 182.518 363.582 181.988 364.512 181.058 C 365.442 180.118 365.972 178.838 365.972 177.518 C 365.972 176.198 365.442 174.908 364.512 173.978 C 363.582 173.048 362.292 172.518 360.972 172.518 C 359.652 172.518 358.37199999999996 173.048 357.442 173.978 C 356.502 174.90800000000002 355.972 176.198 355.972 177.518 C 355.972 178.838 356.50199999999995 180.118 357.442 181.058 C 358.372 181.988 359.66200000000003 182.518 360.972 182.518 z" stroke-linecap="round" />
</g>
		<g transform="matrix(1.78 0 0 1.78 271.76 -83.39)"  >
<path style="stroke: none; stroke-width: 1; stroke-dasharray: none; stroke-linecap: butt; stroke-dashoffset: 0; stroke-linejoin: miter; stroke-miterlimit: 4; fill: rgb(0,0,0); fill-rule: nonzero; opacity: 1;" vector-effect="non-scaling-stroke"  transform=" translate(-376.63, -177.52)" d="M 376.632 182.518 C 377.942 182.518 379.232 181.988 380.162 181.058 C 381.092 180.118 381.632 178.838 381.632 177.518 C 381.632 176.198 381.092 174.918 380.162 173.978 C 379.23199999999997 173.048 377.94199999999995 172.518 376.632 172.518 C 375.312 172.518 374.022 173.048 373.092 173.978 C 372.162 174.90800000000002 371.632 176.198 371.632 177.518 C 371.632 178.838 372.162 180.12800000000001 373.092 181.058 C 374.022 181.988 375.312 182.518 376.632 182.518 z" stroke-linecap="round" />
</g>
		<g transform="matrix(1.78 0 0 1.78 299.68 -83.39)"  >
<path style="stroke: none; stroke-width: 1; stroke-dasharray: none; stroke-linecap: butt; stroke-dashoffset: 0; stroke-linejoin: miter; stroke-miterlimit: 4; fill: rgb(0,0,0); fill-rule: nonzero; opacity: 1;" vector-effect="non-scaling-stroke"  transform=" translate(-392.28, -177.52)" d="M 392.282 182.518 C 393.602 182.518 394.892 181.988 395.822 181.058 C 396.752 180.118 397.282 178.838 397.282 177.518 C 397.282 176.198 396.752 174.908 395.822 173.978 C 394.892 173.048 393.602 172.518 392.282 172.518 C 390.962 172.518 389.68199999999996 173.048 388.752 173.978 C 387.822 174.90800000000002 387.282 176.198 387.282 177.518 C 387.282 178.838 387.822 180.12800000000001 388.752 181.058 C 389.682 181.988 390.962 182.518 392.282 182.518 z" stroke-linecap="round" />
</g>
		<g transform="matrix(1.78 0 0 1.78 215.92 -109.25)"  >
<path style="stroke: none; stroke-width: 1; stroke-dasharray: none; stroke-linecap: butt; stroke-dashoffset: 0; stroke-linejoin: miter; stroke-miterlimit: 4; fill: rgb(0,0,0); fill-rule: nonzero; opacity: 1;" vector-effect="non-scaling-stroke"  transform=" translate(-345.32, -163.02)" d="M 345.322 168.018 C 346.632 168.018 347.922 167.488 348.852 166.558 C 349.782 165.618 350.322 164.338 350.322 163.018 C 350.322 161.698 349.782 160.408 348.852 159.488 C 347.92199999999997 158.548 346.63199999999995 158.018 345.322 158.018 C 344.002 158.018 342.712 158.548 341.782 159.478 C 340.852 160.40800000000002 340.322 161.698 340.322 163.018 C 340.322 164.338 340.852 165.62800000000001 341.782 166.558 C 342.712 167.488 344.002 168.018 345.322 168.018 z" stroke-linecap="round" />
</g>
		<g transform="matrix(1.78 0 0 1.78 243.83 -109.25)"  >
<path style="stroke: none; stroke-width: 1; stroke-dasharray: none; stroke-linecap: butt; stroke-dashoffset: 0; stroke-linejoin: miter; stroke-miterlimit: 4; fill: rgb(0,0,0); fill-rule: nonzero; opacity: 1;" vector-effect="non-scaling-stroke"  transform=" translate(-360.97, -163.02)" d="M 360.972 168.018 C 362.292 168.018 363.582 167.488 364.512 166.558 C 365.442 165.618 365.972 164.338 365.972 163.018 C 365.972 161.698 365.442 160.408 364.512 159.478 C 363.572 158.548 362.292 158.018 360.972 158.018 C 359.662 158.018 358.37199999999996 158.548 357.442 159.478 C 356.502 160.40800000000002 355.972 161.698 355.972 163.018 C 355.972 164.338 356.50199999999995 165.618 357.442 166.558 C 358.372 167.488 359.66200000000003 168.018 360.972 168.018 z" stroke-linecap="round" />
</g>
		<g transform="matrix(1.78 0 0 1.78 271.76 -109.25)"  >
<path style="stroke: none; stroke-width: 1; stroke-dasharray: none; stroke-linecap: butt; stroke-dashoffset: 0; stroke-linejoin: miter; stroke-miterlimit: 4; fill: rgb(0,0,0); fill-rule: nonzero; opacity: 1;" vector-effect="non-scaling-stroke"  transform=" translate(-376.63, -163.02)" d="M 376.632 168.018 C 377.942 168.018 379.232 167.488 380.162 166.548 C 381.092 165.618 381.632 164.338 381.632 163.018 C 381.632 161.698 381.092 160.418 380.162 159.478 C 379.23199999999997 158.548 377.94199999999995 158.018 376.632 158.018 C 375.312 158.018 374.022 158.548 373.092 159.478 C 372.162 160.40800000000002 371.632 161.698 371.632 163.018 C 371.632 164.338 372.162 165.62800000000001 373.092 166.548 C 374.022 167.488 375.312 168.018 376.632 168.018 z" stroke-linecap="round" />
</g>
		<g transform="matrix(1.78 0 0 1.78 299.68 -109.25)"  >
<path style="stroke: none; stroke-width: 1; stroke-dasharray: none; stroke-linecap: butt; stroke-dashoffset: 0; stroke-linejoin: miter; stroke-miterlimit: 4; fill: rgb(0,0,0); fill-rule: nonzero; opacity: 1;" vector-effect="non-scaling-stroke"  transform=" translate(-392.28, -163.02)" d="M 392.282 168.018 C 393.602 168.018 394.892 167.488 395.822 166.548 C 396.752 165.618 397.282 164.338 397.282 163.018 C 397.282 161.698 396.752 160.418 395.822 159.478 C 394.892 158.548 393.602 158.018 392.282 158.018 C 390.972 158.018 389.68199999999996 158.548 388.752 159.478 C 387.822 160.40800000000002 387.282 161.698 387.282 163.018 C 387.282 164.338 387.822 165.618 388.752 166.548 C 389.682 167.488 390.97200000000004 168.018 392.282 168.018 z" stroke-linecap="round" />
</g>
		<g transform="matrix(1.78 0 0 1.78 215.92 -57.52)"  >
<path style="stroke: none; stroke-width: 1; stroke-dasharray: none; stroke-linecap: butt; stroke-dashoffset: 0; stroke-linejoin: miter; stroke-miterlimit: 4; fill: rgb(0,0,0); fill-rule: nonzero; opacity: 1;" vector-effect="non-scaling-stroke"  transform=" translate(-345.32, -192.02)" d="M 345.322 197.018 C 346.632 197.018 347.922 196.488 348.852 195.558 C 349.782 194.618 350.322 193.328 350.322 192.018 C 350.322 190.698 349.782 189.418 348.852 188.478 C 347.92199999999997 187.548 346.63199999999995 187.018 345.322 187.018 C 344.002 187.018 342.712 187.548 341.782 188.478 C 340.852 189.40800000000002 340.322 190.698 340.322 192.018 C 340.322 193.338 340.852 194.618 341.782 195.558 C 342.712 196.488 344.002 197.018 345.322 197.018 z" stroke-linecap="round" />
</g>
		<g transform="matrix(1.78 0 0 1.78 243.83 -57.52)"  >
<path style="stroke: none; stroke-width: 1; stroke-dasharray: none; stroke-linecap: butt; stroke-dashoffset: 0; stroke-linejoin: miter; stroke-miterlimit: 4; fill: rgb(0,0,0); fill-rule: nonzero; opacity: 1;" vector-effect="non-scaling-stroke"  transform=" translate(-360.97, -192.02)" d="M 360.972 197.018 C 362.292 197.018 363.582 196.488 364.512 195.558 C 365.442 194.618 365.972 193.338 365.972 192.018 C 365.972 190.698 365.442 189.418 364.512 188.478 C 363.582 187.548 362.292 187.018 360.972 187.018 C 359.662 187.018 358.37199999999996 187.548 357.442 188.478 C 356.502 189.418 355.972 190.698 355.972 192.018 C 355.972 193.338 356.50199999999995 194.618 357.442 195.558 C 358.372 196.488 359.66200000000003 197.018 360.972 197.018 z" stroke-linecap="round" />
</g>
		<g transform="matrix(1.78 0 0 1.78 271.76 -57.52)"  >
<path style="stroke: none; stroke-width: 1; stroke-dasharray: none; stroke-linecap: butt; stroke-dashoffset: 0; stroke-linejoin: miter; stroke-miterlimit: 4; fill: rgb(0,0,0); fill-rule: nonzero; opacity: 1;" vector-effect="non-scaling-stroke"  transform=" translate(-376.63, -192.02)" d="M 376.632 197.018 C 377.942 197.018 379.232 196.488 380.162 195.558 C 381.092 194.618 381.632 193.338 381.632 192.018 C 381.632 190.698 381.092 189.418 380.162 188.478 C 379.23199999999997 187.548 377.94199999999995 187.018 376.632 187.018 C 375.312 187.018 374.022 187.548 373.092 188.478 C 372.162 189.40800000000002 371.632 190.698 371.632 192.018 C 371.632 193.338 372.162 194.62800000000001 373.092 195.558 C 374.022 196.488 375.312 197.018 376.632 197.018 z" stroke-linecap="round" />
</g>
		<g transform="matrix(1.78 0 0 1.78 299.68 -57.52)"  >
<path style="stroke: none; stroke-width: 1; stroke-dasharray: none; stroke-linecap: butt; stroke-dashoffset: 0; stroke-linejoin: miter; stroke-miterlimit: 4; fill: rgb(0,0,0); fill-rule: nonzero; opacity: 1;" vector-effect="non-scaling-stroke"  transform=" translate(-392.28, -192.02)" d="M 392.282 197.018 C 393.602 197.018 394.892 196.488 395.822 195.558 C 396.752 194.618 397.282 193.338 397.282 192.018 C 397.282 190.698 396.752 189.418 395.822 188.488 C 394.892 187.548 393.602 187.018 392.282 187.018 C 390.972 187.018 389.68199999999996 187.548 388.752 188.488 C 387.822 189.418 387.282 190.698 387.282 192.018 C 387.282 193.338 387.822 194.618 388.752 195.558 C 389.682 196.488 390.97200000000004 197.018 392.282 197.018 z" stroke-linecap="round" />
</g>
</g>
</g>
<g transform="matrix(1 0 0 1 497.54 649.16)" style="" id="b166637c-19a1-4ebf-89e5-10e8cbf07108"  >
		<text xml:space="preserve" font-family="Lato" font-size="40" font-style="normal" font-weight="400" style="stroke: none; stroke-width: 1; stroke-dasharray: none; stroke-linecap: butt; stroke-dashoffset: 0; stroke-linejoin: miter; stroke-miterlimit: 4; fill: rgb(0,0,0); fill-rule: nonzero; opacity: 1; white-space: pre;" ></text>
</g>
<g transform="matrix(1 0 0 1 457.11 752.26)" style="" id="fc0458f0-d69b-4a96-8575-59d92b54419f"  >
		<text xml:space="preserve" font-family="Lato" font-size="123" font-style="normal" font-weight="900" style="stroke: none; stroke-width: 1; stroke-dasharray: none; stroke-linecap: butt; stroke-dashoffset: 0; stroke-linejoin: miter; stroke-miterlimit: 4; fill: rgb(0,0,0); fill-rule: nonzero; opacity: 1; white-space: pre;" ><tspan x="-203.32" y="38.64" >4K Text</tspan></text>
</g>
<g transform="matrix(1 0 0 1 540.5 564.79)" style="" id="17ee59ea-9373-41a8-8444-db63993238f7"  >
		<text xml:space="preserve" font-family="Alegreya" font-size="123" font-style="normal" font-weight="700" style="stroke: none; stroke-width: 1; stroke-dasharray: none; stroke-linecap: butt; stroke-dashoffset: 0; stroke-linejoin: miter; stroke-miterlimit: 4; fill: rgb(0,0,0); fill-rule: nonzero; opacity: 1; white-space: pre;" ></text>
</g>
<g transform="matrix(1 0 0 1 457.11 502.1)" style="" id="5458809e-3c1b-444e-be0e-26875651bf47"  >
		<text xml:space="preserve" font-family="Lato" font-size="123" font-style="normal" font-weight="900" style="stroke: none; stroke-width: 1; stroke-dasharray: none; stroke-linecap: butt; stroke-dashoffset: 0; stroke-linejoin: miter; stroke-miterlimit: 4; fill: rgb(0,0,0); fill-rule: nonzero; opacity: 1; white-space: pre;" ><tspan x="-201.66" y="38.64" >Caught</tspan></text>
</g>
<g transform="matrix(1 0 0 1 467.22 632.88)" style="" id="5e654e04-9943-4d02-af15-635c2cfcfd11"  >
		<text xml:space="preserve" font-family="Lato" font-size="123" font-style="normal" font-weight="900" style="stroke: none; stroke-width: 1; stroke-dasharray: none; stroke-linecap: butt; stroke-dashoffset: 0; stroke-linejoin: miter; stroke-miterlimit: 4; fill: rgb(0,0,0); fill-rule: nonzero; opacity: 1; white-space: pre;" ><tspan x="-55.35" y="38.64" >In</tspan></text>
</g>
<g transform="matrix(1 0 0 1 337.85 638.55)" id="72a2b344-9a19-4de8-965a-77206be2b408"  >
<polygon style="stroke: rgb(0,0,0); stroke-width: 0; stroke-dasharray: none; stroke-linecap: butt; stroke-dashoffset: 0; stroke-linejoin: miter; stroke-miterlimit: 4; fill: rgb(0,0,0); fill-rule: nonzero; opacity: 1;" vector-effect="non-scaling-stroke"  points="0,36.77 15.28,20.24 30.55,3.71 11.79,3.71 11.79,-36.77 -12.82,-36.77 -12.82,3.71 -30.55,3.71 -15.28,20.24 " />
</g>
<g transform="matrix(1 0 0 1 593.07 638.55)" id="d3c83256-f2ad-46b1-b6d1-ea52f734ff98"  >
<polygon style="stroke: rgb(0,0,0); stroke-width: 0; stroke-dasharray: none; stroke-linecap: butt; stroke-dashoffset: 0; stroke-linejoin: miter; stroke-miterlimit: 4; fill: rgb(0,0,0); fill-rule: nonzero; opacity: 1;" vector-effect="non-scaling-stroke"  points="0,36.77 15.28,20.24 30.55,3.71 11.79,3.71 11.79,-36.77 -12.82,-36.77 -12.82,3.71 -30.55,3.71 -15.28,20.24 " />
</g>
</svg>